<?xml version="1.0" standalone="no"?><!DOCTYPE svg PUBLIC "-//W3C//DTD SVG 1.1//EN" "http://www.w3.org/Graphics/SVG/1.1/DTD/svg11.dtd"><svg class="icon" width="64px" height="64.00px" viewBox="0 0 1024 1024" version="1.1" xmlns="http://www.w3.org/2000/svg"><path fill="#2ab561" d="M563.12247467 335.6205101zM638.78651809 163.66730881C446.41677093 93.65779114 233.70000076 192.82056045 163.66730881 385.21348191c-70.00951767 192.39292146 29.17642593 405.13286591 221.5461731 475.11920928 192.39292146 70.00951767 405.08651734-29.19960022 475.11920928-221.5461731 70.03269196-192.39292146-29.17642593-405.08651734-221.5461731-475.11920928z m65.02704622 366.17689133a49.12948609 49.12948609 0 0 1-12.60681153 14.55345153c-4.54216003 3.31392288-7.80973434 4.40311432-9.77954865 3.33709717-1.99298859-1.01966858-3.2907486-3.22122574-3.91645432-6.51197434-0.64888-3.26757431-0.09269714-8.64400864 1.59902573-16.19882583 2.80408859-12.23602295 2.15520859-22.29366303-1.87711716-30.0338745-4.03232575-7.74021149-12.00428009-15.15598298-23.84634017-22.1777916a85.51311493 85.51311493 0 0 1-29.29229736-29.33864595 271.06962204 271.06962204 0 0 1-17.102623-32.42082595c-4.21772003-8.6903572-8.41226577-12.74585724-12.6299858-12.25919724-4.19454575 0.5098343-7.48529434 5.70087433-9.24654007 10.47477723l-17.86737442 52.44340896-45.28255463 124.26052093-24.33300018 66.97368623c-2.34060288 7.27672578-7.50846862 11.72618867-13.23251724 19.65179443a67.59939194 67.59939194 0 0 1-23.29015733 19.79084015c-9.80272293 5.30691147-21.45938873 8.59766006-35.03952026 9.98811721-13.55695725 1.36728287-29.10690307-0.67205429-46.6266632-6.00214004-17.77467728-5.44595718-32.3513031-14.32170868-43.84574891-26.65042876-11.42492295-12.3287201-19.00291443-25.37584305-22.71080016-39.09502031a64.23912049 64.23912049 0 0 1 1.78442001-40.11468887c4.91294861-13.04712295 14.92424011-23.24380874 30.01070022-30.65958023 15.1096344-7.41577148 29.82530594-11.05413437 44.19336319-10.91508865a133.46071243 133.46071243 0 0 1 39.55850602 6.00214005c12.02745438 3.82375718 22.31683731 8.50496292 30.8681488 14.04361724 8.5513115 5.44595718 17.17214585 9.24654007 20.97272873 12.6531601l45.21303177-124.26052094c12.93125153-35.43348312 28.80563736-79.99763489 45.25938034-124.30686951 3.17487717-8.71353149 5.46913147-12.86172866 11.93475723-16.77818298s13.53378296-5.00564575 21.27399445-3.22122574c6.53514862 1.34410858 11.19318008 4.49581147 13.90457153 9.40876008 2.75774002 4.91294861 5.07516861 11.19318008 6.99863434 18.84069442 1.87711716 7.67068863 4.47263718 16.47691727 7.69386291 26.48820878 3.22122574 9.98811722 8.64400864 20.64828873 16.26834869 31.93416595 6.37292861 10.15033722 12.35189438 17.86737442 17.89054872 23.3133316 5.51548005 5.4227829 10.79921723 10.49795151 15.61946868 15.13280868 4.84342575 4.65803147 9.38558579 9.77954865 13.71917725 15.45724869 4.33359146 5.65452576 8.41226577 13.76552582 12.25919723 24.35617447 3.98597717 10.24303437 5.19104004 19.86036301 3.6151886 28.85198594a66.9968605 66.9968605 0 0 1-8.11100005 22.9888916z"  /></svg>